<svg width="256" height="90" version="1.1" xmlns="http://www.w3.org/2000/svg"><path fill="rgb(165,185,244)" stroke="rgb(165,185,244)" stroke-width="1" opacity="0.5098039215686274" d="M 210.5 8 L 225 8.5 L 210.5 9 L 210.5 8 Z "></path><path fill="rgb(165,185,244)" stroke="rgb(165,185,244)" stroke-width="1" opacity="0.5098039215686274" d="M 206.5 9 L 209 9.5 L 206.5 10 L 206.5 9 Z "></path><path fill="rgb(165,185,244)" stroke="rgb(165,185,244)" stroke-width="1" opacity="0.5098039215686274" d="M 226.5 9 L 229 9.5 L 226.5 10 L 226.5 9 Z "></path><path fill="rgb(165,185,244)" stroke="rgb(165,185,244)" stroke-width="1" opacity="0.5098039215686274" d="M 3.5 10 L 4 79.5 L 3 79.5 L 3.5 10 Z "></path><path fill="rgb(165,185,244)" stroke="rgb(165,185,244)" stroke-width="1" opacity="0.5098039215686274" d="M 38.5 10 L 42 10.5 L 38.5 11 L 38.5 10 Z "></path><path fill="rgb(165,185,244)" stroke="rgb(165,185,244)" stroke-width="1" opacity="0.5098039215686274" d="M 67.5 10 L 69 14.5 L 68 14.5 L 67.5 10 Z "></path><path fill="rgb(165,185,244)" stroke="rgb(165,185,244)" stroke-width="1" opacity="0.5098039215686274" d="M 116.5 10 Q 122.5 8.5 124 11.5 L 122.5 11 Q 115.5 9.5 116 12.5 L 114.5 15 L 114 13.5 L 116.5 10 Z "></path><path fill="rgb(165,185,244)" stroke="rgb(165,185,244)" stroke-width="1" opacity="0.5098039215686274" d="M 150.5 10 L 151 12.5 L 150 12.5 L 150.5 10 Z "></path><path fill="rgb(165,185,244)" stroke="rgb(165,185,244)" stroke-width="1" opacity="0.5098039215686274" d="M 171.5 10 L 172 11.5 L 170.5 15 L 170 12.5 L 171.5 10 Z "></path><path fill="rgb(165,185,244)" stroke="rgb(165,185,244)" stroke-width="1" opacity="0.5098039215686274" d="M 230.5 10 Q 240.4 13.1 246 20.5 L 249 25.5 L 247 24.5 L 241.5 17 L 230.5 11 L 230.5 10 Z "></path><path fill="rgb(165,185,244)" stroke="rgb(165,185,244)" stroke-width="1" opacity="0.5098039215686274" d="M 200.5 11 L 202 11.5 L 190 19.5 L 183.5 30 L 183 28.5 L 191.5 17 L 200.5 11 Z "></path><path fill="rgb(165,185,244)" stroke="rgb(165,185,244)" stroke-width="1" opacity="0.5098039215686274" d="M 46.5 12 L 54 17.5 L 55 19.5 L 53 18.5 L 50.5 15 Q 45.8 14.2 46.5 12 Z "></path><path fill="rgb(165,185,244)" stroke="rgb(165,185,244)" stroke-width="1" opacity="0.5098039215686274" d="M 89.5 13 L 91 18.5 L 90 18.5 L 89.5 13 Z "></path><path fill="rgb(165,185,244)" stroke="rgb(165,185,244)" stroke-width="1" opacity="0.5098039215686274" d="M 124.5 13 L 126 16.5 L 125 16.5 L 124.5 13 Z "></path><path fill="rgb(165,185,244)" stroke="rgb(165,185,244)" stroke-width="1" opacity="0.5098039215686274" d="M 113.5 16 L 114 17.5 L 111.5 22 L 111 20.5 L 113.5 16 Z "></path><path fill="rgb(165,185,244)" stroke="rgb(165,185,244)" stroke-width="1" opacity="0.5098039215686274" d="M 148.5 17 L 149 19.5 L 148 19.5 L 148.5 17 Z "></path><path fill="rgb(165,185,244)" stroke="rgb(165,185,244)" stroke-width="1" opacity="0.5098039215686274" d="M 126.5 18 L 129 23.5 L 128 23.5 L 126.5 18 Z "></path><path fill="rgb(165,185,244)" stroke="rgb(165,185,244)" stroke-width="1" opacity="0.5098039215686274" d="M 91.5 20 L 92 22.5 L 91 22.5 L 91.5 20 Z "></path><path fill="rgb(165,185,244)" stroke="rgb(165,185,244)" stroke-width="1" opacity="0.5098039215686274" d="M 147.5 21 L 148 23.5 L 146.5 27 L 146 24.5 L 147.5 21 Z "></path><path fill="rgb(165,185,244)" stroke="rgb(165,185,244)" stroke-width="1" opacity="0.5098039215686274" d="M 167.5 22 L 168 24.5 L 166.5 28 L 166 25.5 L 167.5 22 Z "></path><path fill="rgb(165,185,244)" stroke="rgb(165,185,244)" stroke-width="1" opacity="0.5098039215686274" d="M 110.5 23 L 111 24.5 L 109.5 27 L 109 25.5 L 110.5 23 Z "></path><path fill="rgb(165,185,244)" stroke="rgb(165,185,244)" stroke-width="1" opacity="0.5098039215686274" d="M 56.5 24 L 57 31.5 L 56 31.5 L 56.5 24 Z "></path><path fill="rgb(165,185,244)" stroke="rgb(165,185,244)" stroke-width="1" opacity="0.5098039215686274" d="M 33.5 25 L 38 27.5 L 37.5 29 L 37 27 Q 32.8 27 33.5 25 Z "></path><path fill="rgb(165,185,244)" stroke="rgb(165,185,244)" stroke-width="1" opacity="0.5098039215686274" d="M 72.5 25 L 74 30.5 L 73 30.5 L 72.5 25 Z "></path><path fill="rgb(165,185,244)" stroke="rgb(165,185,244)" stroke-width="1" opacity="0.5098039215686274" d="M 129.5 25 L 132 30.5 L 131 30.5 L 129.5 25 Z "></path><path fill="rgb(165,185,244)" stroke="rgb(165,185,244)" stroke-width="1" opacity="0.5098039215686274" d="M 213.5 26 L 221 26.5 L 213.5 27 L 213.5 26 Z "></path><path fill="rgb(165,185,244)" stroke="rgb(165,185,244)" stroke-width="1" opacity="0.5098039215686274" d="M 93.5 27 L 94 29.5 L 93 29.5 L 93.5 27 Z "></path><path fill="rgb(165,185,244)" stroke="rgb(165,185,244)" stroke-width="1" opacity="0.5098039215686274" d="M 210.5 27 L 212 27.5 L 204 33.5 L 201.5 39 L 201 37.5 L 208.5 28 L 210.5 27 Z "></path><path fill="rgb(165,185,244)" stroke="rgb(165,185,244)" stroke-width="1" opacity="0.5098039215686274" d="M 108.5 28 L 109 29.5 L 106.5 34 L 106 32.5 L 108.5 28 Z "></path><path fill="rgb(165,185,244)" stroke="rgb(165,185,244)" stroke-width="1" opacity="0.5098039215686274" d="M 145.5 28 L 146 30.5 L 145 30.5 L 145.5 28 Z "></path><path fill="rgb(165,185,244)" stroke="rgb(165,185,244)" stroke-width="1" opacity="0.5098039215686274" d="M 225.5 28 L 231 32.5 L 232 34.5 L 230 33.5 L 227.5 30 L 225.5 28 Z "></path><path fill="rgb(165,185,244)" stroke="rgb(165,185,244)" stroke-width="1" opacity="0.5098039215686274" d="M 250.5 29 L 252 33.5 L 251 33.5 L 250.5 29 Z "></path><path fill="rgb(165,185,244)" stroke="rgb(165,185,244)" stroke-width="1" opacity="0.5098039215686274" d="M 132.5 32 L 135 37.5 L 134 37.5 L 132.5 32 Z "></path><path fill="rgb(165,185,244)" stroke="rgb(165,185,244)" stroke-width="1" opacity="0.5098039215686274" d="M 37.5 33 L 38 34.5 L 34.5 37 L 34.5 36 L 37 34.5 L 37.5 33 Z "></path><path fill="rgb(165,185,244)" stroke="rgb(165,185,244)" stroke-width="1" opacity="0.5098039215686274" d="M 55.5 33 L 56 34.5 L 50.5 42 L 53 38.5 L 55.5 33 Z "></path><path fill="rgb(165,185,244)" stroke="rgb(165,185,244)" stroke-width="1" opacity="0.5098039215686274" d="M 95.5 34 L 96 36.5 L 95 36.5 L 95.5 34 Z "></path><path fill="rgb(165,185,244)" stroke="rgb(165,185,244)" stroke-width="1" opacity="0.5098039215686274" d="M 181.5 34 L 182 36.5 L 181 36.5 L 181.5 34 Z "></path><path fill="rgb(165,185,244)" stroke="rgb(165,185,244)" stroke-width="1" opacity="0.5098039215686274" d="M 105.5 35 L 106 36.5 L 104.5 39 L 104 37.5 L 105.5 35 Z "></path><path fill="rgb(165,185,244)" stroke="rgb(165,185,244)" stroke-width="1" opacity="0.5098039215686274" d="M 143.5 35 L 144 37.5 L 143 37.5 L 143.5 35 Z "></path><path fill="rgb(165,185,244)" stroke="rgb(165,185,244)" stroke-width="1" opacity="0.5098039215686274" d="M 163.5 35 L 164 37.5 L 162.5 41 L 162 38.5 L 163.5 35 Z "></path><path fill="rgb(165,185,244)" stroke="rgb(165,185,244)" stroke-width="1" opacity="0.5098039215686274" d="M 252.5 35 L 253 37.5 L 252 37.5 L 252.5 35 Z "></path><path fill="rgb(165,185,244)" stroke="rgb(165,185,244)" stroke-width="1" opacity="0.5098039215686274" d="M 22.5 37 L 32 37.5 L 22.5 38 L 22.5 37 Z "></path><path fill="rgb(165,185,244)" stroke="rgb(165,185,244)" stroke-width="1" opacity="0.5098039215686274" d="M 180.5 38 L 181 51.5 L 180 51.5 L 180.5 38 Z "></path><path fill="rgb(165,185,244)" stroke="rgb(165,185,244)" stroke-width="1" opacity="0.5098039215686274" d="M 135.5 39 L 137 42.5 L 136 42.5 L 135.5 39 Z "></path><path fill="rgb(165,185,244)" stroke="rgb(165,185,244)" stroke-width="1" opacity="0.5098039215686274" d="M 142.5 39 L 143 41.5 L 142 41.5 L 142.5 39 Z "></path><path fill="rgb(165,185,244)" stroke="rgb(165,185,244)" stroke-width="1" opacity="0.5098039215686274" d="M 103.5 40 L 104 41.5 L 101.5 46 L 101 44.5 L 103.5 40 Z "></path><path fill="rgb(165,185,244)" stroke="rgb(165,185,244)" stroke-width="1" opacity="0.5098039215686274" d="M 200.5 40 L 201 49.5 L 200 49.5 L 200.5 40 Z "></path><path fill="rgb(165,185,244)" stroke="rgb(165,185,244)" stroke-width="1" opacity="0.5098039215686274" d="M 97.5 41 L 98 43.5 L 97 43.5 L 97.5 41 Z "></path><path fill="rgb(165,185,244)" stroke="rgb(165,185,244)" stroke-width="1" opacity="0.5098039215686274" d="M 48.5 42 L 57 51.5 L 56 51.5 L 49.5 44 Q 46.7 44.7 48.5 42 Z "></path><path fill="rgb(165,185,244)" stroke="rgb(165,185,244)" stroke-width="1" opacity="0.5098039215686274" d="M 78.5 44 L 80 49.5 L 79 49.5 L 78.5 44 Z "></path><path fill="rgb(165,185,244)" stroke="rgb(165,185,244)" stroke-width="1" opacity="0.5098039215686274" d="M 137.5 44 L 139.5 48 L 140.5 46 L 141 48.5 L 139 49.5 L 137.5 44 Z "></path><path fill="rgb(165,185,244)" stroke="rgb(165,185,244)" stroke-width="1" opacity="0.5098039215686274" d="M 98.5 45 L 99.5 48 L 101 47.5 L 99.5 50 L 98.5 45 Z "></path><path fill="rgb(165,185,244)" stroke="rgb(165,185,244)" stroke-width="1" opacity="0.5098039215686274" d="M 119.5 47 L 122 51.5 L 121 51.5 L 119.5 48 L 118.5 50 L 118 48.5 L 119.5 47 Z "></path><path fill="rgb(165,185,244)" stroke="rgb(165,185,244)" stroke-width="1" opacity="0.5098039215686274" d="M 22.5 51 L 34.5 51 L 39 54.5 L 40 58.5 L 39 58.5 L 36.5 53 L 34.5 52 L 22.5 52 L 22.5 51 Z "></path><path fill="rgb(165,185,244)" stroke="rgb(165,185,244)" stroke-width="1" opacity="0.5098039215686274" d="M 117.5 51 L 118 52.5 L 116.5 55 L 116 53.5 L 117.5 51 Z "></path><path fill="rgb(165,185,244)" stroke="rgb(165,185,244)" stroke-width="1" opacity="0.5098039215686274" d="M 158.5 51 L 159 53.5 L 158 53.5 L 158.5 51 Z "></path><path fill="rgb(165,185,244)" stroke="rgb(165,185,244)" stroke-width="1" opacity="0.5098039215686274" d="M 232.5 52 L 233 53.5 L 228.5 60 L 229 58.5 L 232.5 52 Z "></path><path fill="rgb(165,185,244)" stroke="rgb(165,185,244)" stroke-width="1" opacity="0.5098039215686274" d="M 252.5 52 L 253 54.5 L 252 54.5 L 252.5 52 Z "></path><path fill="rgb(165,185,244)" stroke="rgb(165,185,244)" stroke-width="1" opacity="0.5098039215686274" d="M 122.5 53 L 125 59.5 L 124 59.5 L 122.5 53 Z "></path><path fill="rgb(165,185,244)" stroke="rgb(165,185,244)" stroke-width="1" opacity="0.5098039215686274" d="M 181.5 54 L 183 58.5 L 182 58.5 L 181.5 54 Z "></path><path fill="rgb(165,185,244)" stroke="rgb(165,185,244)" stroke-width="1" opacity="0.5098039215686274" d="M 202.5 54 L 208.5 61 L 212 62.5 L 210.5 63 L 203 56.5 L 202.5 54 Z "></path><path fill="rgb(165,185,244)" stroke="rgb(165,185,244)" stroke-width="1" opacity="0.5098039215686274" d="M 58.5 56 L 59 63.5 L 58 63.5 L 58.5 56 Z "></path><path fill="rgb(165,185,244)" stroke="rgb(165,185,244)" stroke-width="1" opacity="0.5098039215686274" d="M 115.5 56 L 116 57.5 L 114.5 60 L 114 58.5 L 115.5 56 Z "></path><path fill="rgb(165,185,244)" stroke="rgb(165,185,244)" stroke-width="1" opacity="0.5098039215686274" d="M 251.5 56 L 252 58.5 L 250.5 61 L 250 59.5 L 251.5 56 Z "></path><path fill="rgb(165,185,244)" stroke="rgb(165,185,244)" stroke-width="1" opacity="0.5098039215686274" d="M 38.5 60 L 39 61.5 L 37 62.5 L 38.5 60 Z "></path><path fill="rgb(165,185,244)" stroke="rgb(165,185,244)" stroke-width="1" opacity="0.5098039215686274" d="M 83.5 60 L 85 65.5 L 84 65.5 L 83.5 60 Z "></path><path fill="rgb(165,185,244)" stroke="rgb(165,185,244)" stroke-width="1" opacity="0.5098039215686274" d="M 183.5 60 L 191.5 72 L 198 76.5 L 196.5 76 L 189 70.5 L 184 63.5 L 183.5 60 Z "></path><path fill="rgb(165,185,244)" stroke="rgb(165,185,244)" stroke-width="1" opacity="0.5098039215686274" d="M 226.5 60 L 225.5 62 L 226.5 60 Z "></path><path fill="rgb(165,185,244)" stroke="rgb(165,185,244)" stroke-width="1" opacity="0.5098039215686274" d="M 125.5 61 L 127 64.5 L 126 64.5 L 125.5 61 Z "></path><path fill="rgb(165,185,244)" stroke="rgb(165,185,244)" stroke-width="1" opacity="0.5098039215686274" d="M 213.5 63 L 221 63.5 L 213.5 64 L 213.5 63 Z "></path><path fill="rgb(165,185,244)" stroke="rgb(165,185,244)" stroke-width="1" opacity="0.5098039215686274" d="M 22.5 64 L 33 64.5 L 22.5 65 L 22.5 64 Z "></path><path fill="rgb(165,185,244)" stroke="rgb(165,185,244)" stroke-width="1" opacity="0.5098039215686274" d="M 112.5 64 L 113 65.5 L 111.5 68 L 111 66.5 L 112.5 64 Z "></path><path fill="rgb(165,185,244)" stroke="rgb(165,185,244)" stroke-width="1" opacity="0.5098039215686274" d="M 154.5 64 L 155 66.5 L 154 66.5 L 154.5 64 Z "></path><path fill="rgb(165,185,244)" stroke="rgb(165,185,244)" stroke-width="1" opacity="0.5098039215686274" d="M 248.5 64 L 248 65.5 L 241.5 74 L 238.5 76 L 240.5 73 L 244 70.5 L 248.5 64 Z "></path><path fill="rgb(165,185,244)" stroke="rgb(165,185,244)" stroke-width="1" opacity="0.5098039215686274" d="M 127.5 66 L 129 69.5 L 128 69.5 L 127.5 66 Z "></path><path fill="rgb(165,185,244)" stroke="rgb(165,185,244)" stroke-width="1" opacity="0.5098039215686274" d="M 56.5 68 L 57 69.5 L 52.5 75 L 44.5 79 L 44.5 78 L 53 74 L 56.5 68 Z "></path><path fill="rgb(165,185,244)" stroke="rgb(165,185,244)" stroke-width="1" opacity="0.5098039215686274" d="M 110.5 69 L 111 70.5 L 109.5 73 L 109 71.5 L 110.5 69 Z "></path><path fill="rgb(165,185,244)" stroke="rgb(165,185,244)" stroke-width="1" opacity="0.5098039215686274" d="M 129.5 71 L 131 74.5 L 130 74.5 L 129.5 71 Z "></path><path fill="rgb(165,185,244)" stroke="rgb(165,185,244)" stroke-width="1" opacity="0.5098039215686274" d="M 108.5 74 L 109 75.5 L 107.5 78 L 107 76.5 L 108.5 74 Z "></path><path fill="rgb(165,185,244)" stroke="rgb(165,185,244)" stroke-width="1" opacity="0.5098039215686274" d="M 88.5 76 L 90 79.5 L 88 78.5 L 88.5 76 Z "></path><path fill="rgb(165,185,244)" stroke="rgb(165,185,244)" stroke-width="1" opacity="0.5098039215686274" d="M 131.5 76 L 133 79.5 L 132 79.5 L 131.5 76 Z "></path><path fill="rgb(165,185,244)" stroke="rgb(165,185,244)" stroke-width="1" opacity="0.5098039215686274" d="M 236.5 76 L 235.5 78 L 225.5 81 L 225.5 80 Q 232.7 79.7 236.5 76 Z "></path><path fill="rgb(165,185,244)" stroke="rgb(165,185,244)" stroke-width="1" opacity="0.5098039215686274" d="M 150.5 77 L 151 79.5 L 150 79.5 L 150.5 77 Z "></path><path fill="rgb(165,185,244)" stroke="rgb(165,185,244)" stroke-width="1" opacity="0.5098039215686274" d="M 199.5 77 L 202 78.5 L 200.5 79 L 199.5 77 Z "></path><path fill="rgb(165,185,244)" stroke="rgb(165,185,244)" stroke-width="1" opacity="0.5098039215686274" d="M 38.5 79 L 43 79.5 L 38.5 80 L 38.5 79 Z "></path><path fill="rgb(165,185,244)" stroke="rgb(165,185,244)" stroke-width="1" opacity="0.5098039215686274" d="M 206.5 80 L 209 80.5 L 206.5 81 L 206.5 80 Z "></path><path fill="rgb(165,185,244)" stroke="rgb(165,185,244)" stroke-width="1" opacity="0.5098039215686274" d="M 210.5 81 L 224 81.5 L 210.5 82 L 210.5 81 Z "></path><path fill="rgb(0,0,0)" stroke="rgb(0,0,0)" stroke-width="1" opacity="0" d="M 0 0 L 256 0 L 256 90 L 0 90 L 0 0 Z M 211 8 Q 199 10 192 17 Q 183 25 180 39 L 181 57 L 189 71 Q 197 79 211 82 L 229 81 L 242 74 Q 250 67 253 55 L 253 51 L 234 51 L 229 59 L 222 63 Q 213 64 209 61 Q 203 57 201 51 Q 199 39 204 34 L 213 27 Q 223 26 228 30 L 232 36 L 233 38 L 253 38 L 252 32 L 246 21 Q 240 14 232 10 Q 224 6 211 8 Z M 3 10 L 3 80 L 43 80 L 53 75 Q 58 71 59 64 Q 60 55 57 51 L 49 43 L 51 42 Q 55 38 57 32 Q 58 22 54 18 Q 50 12 42 10 L 3 10 Z M 67 10 L 88 76 L 88 79 L 90 80 L 107 80 L 120 48 L 132 79 L 133 80 L 151 80 L 159 51 L 172 12 L 172 10 L 150 10 L 142 43 L 140 48 L 124 12 Q 122 9 117 10 L 100 48 L 89 13 L 89 10 L 67 10 Z "></path><path fill="rgb(0,0,0)" stroke="rgb(0,0,0)" stroke-width="1" opacity="0" d="M 22 25 Q 32.3 23.4 37 27 L 38 32.5 L 35.5 36 L 33.5 37 L 22 37 L 22 25 Z "></path><path fill="rgb(0,0,0)" stroke="rgb(0,0,0)" stroke-width="1" opacity="0" d="M 22 52 L 34.5 52 L 38 54.5 L 39 59.5 L 36.5 63 L 22 64 L 22 52 Z "></path><path fill="rgb(166,185,245)" stroke="rgb(166,185,245)" stroke-width="1" opacity="1" d="M 209.5 9 Q 221.6 7.4 229.5 10 Q 239 13.5 245 20.5 Q 251.2 27 252 38 L 233.5 38 L 233 36.5 L 227.5 29 Q 223 24.9 213.5 26 Q 206.3 27.8 203 33.5 Q 198.7 38.7 200 49.5 Q 202.2 57.9 208.5 62 Q 212.5 65 220.5 64 L 230 58.5 L 233 51 L 253 51.5 Q 250.4 65.4 241.5 73 Q 231.5 83 209.5 81 Q 197.3 78.3 190 70.5 Q 183.8 63.7 181 53.5 L 181 37.5 Q 183.8 25.3 191.5 18 Q 198.5 11.5 209.5 9 Z "></path><path fill="rgb(166,185,245)" stroke="rgb(166,185,245)" stroke-width="1" opacity="1" d="M 4 10 L 37.5 10 L 45.5 12 L 53 17.5 Q 57.5 22 56 32.5 L 49.5 42 Q 46.9 41.3 48 44 L 56 50.5 Q 59.3 55.2 58 64.5 L 53 74 L 43.5 79 Q 38.8 77.8 37.5 80 L 4 80 L 4 10 Z M 22 25 L 22 38 L 36 37 L 39 32 L 38 28 L 35 25 L 22 25 Z M 22 51 L 22 65 Q 32 67 38 63 L 40 59 L 39 55 L 35 51 L 22 51 Z "></path><path fill="rgb(166,185,245)" stroke="rgb(166,185,245)" stroke-width="1" opacity="1" d="M 68 10 L 87.5 10 L 88 11.5 L 99.5 50 L 116 11 Q 122.1 9.3 124 12.5 L 139.5 50 L 141 48.5 L 151 10 L 170.5 10 L 171 11.5 L 150 80 L 133.5 80 L 133 78.5 L 119.5 47 L 105.5 80 L 90.5 80 L 89 78.5 L 68 10 Z "></path></svg>