<svg width="256" height="90" version="1.1" xmlns="http://www.w3.org/2000/svg"><path fill="rgb(165,184,244)" stroke="rgb(165,184,244)" stroke-width="1" opacity="0.44313725490196076" d="M 70.5 10 L 73 10.5 L 70.5 11 L 70.5 10 Z "></path><path fill="rgb(165,184,244)" stroke="rgb(165,184,244)" stroke-width="1" opacity="0.44313725490196076" d="M 139.5 10 L 142 10.5 L 139.5 11 L 139.5 10 Z "></path><path fill="rgb(165,184,244)" stroke="rgb(165,184,244)" stroke-width="1" opacity="0.44313725490196076" d="M 229.5 10 L 230 28 L 211 28 L 211 79.5 L 210 79.5 L 210 27.5 L 210.5 27 L 229 27 L 229.5 10 Z "></path><path fill="rgb(165,184,244)" stroke="rgb(165,184,244)" stroke-width="1" opacity="0.44313725490196076" d="M 77.5 12 L 85 18.5 L 79.5 14 L 77.5 12 Z "></path><path fill="rgb(165,184,244)" stroke="rgb(165,184,244)" stroke-width="1" opacity="0.44313725490196076" d="M 146.5 12 L 149 13.5 L 147.5 13 L 146.5 12 Z "></path><path fill="rgb(165,184,244)" stroke="rgb(165,184,244)" stroke-width="1" opacity="0.44313725490196076" d="M 150.5 14 L 158 22.5 L 156 21.5 L 150.5 14 Z "></path><path fill="rgb(165,184,244)" stroke="rgb(165,184,244)" stroke-width="1" opacity="0.44313725490196076" d="M 52.5 25 L 53 36.5 L 52 36.5 L 52.5 25 Z "></path><path fill="rgb(165,184,244)" stroke="rgb(165,184,244)" stroke-width="1" opacity="0.44313725490196076" d="M 63.5 25 Q 67.5 24.5 68 27.5 L 65.5 26 Q 62.5 26.5 63.5 25 Z "></path><path fill="rgb(165,184,244)" stroke="rgb(165,184,244)" stroke-width="1" opacity="0.44313725490196076" d="M 123 27 L 135.5 27 L 139 29.5 L 137.5 29 L 135.5 28 L 124 28 L 123.5 42 L 123 27 Z "></path><path fill="rgb(165,184,244)" stroke="rgb(165,184,244)" stroke-width="1" opacity="0.44313725490196076" d="M 172.5 27 L 191 27.5 L 172.5 28 L 172.5 27 Z "></path><path fill="rgb(165,184,244)" stroke="rgb(165,184,244)" stroke-width="1" opacity="0.44313725490196076" d="M 68.5 29 L 69 33.5 L 64.5 37 L 64.5 36 L 68 33.5 L 68.5 29 Z "></path><path fill="rgb(165,184,244)" stroke="rgb(165,184,244)" stroke-width="1" opacity="0.44313725490196076" d="M 86.5 31 L 87 33.5 L 86 33.5 L 86.5 31 Z "></path><path fill="rgb(165,184,244)" stroke="rgb(165,184,244)" stroke-width="1" opacity="0.44313725490196076" d="M 160.5 32 L 161 36.5 L 160 36.5 L 160.5 32 Z "></path><path fill="rgb(165,184,244)" stroke="rgb(165,184,244)" stroke-width="1" opacity="0.44313725490196076" d="M 140.5 33 L 141 36.5 L 137.5 41 L 139 38.5 L 140.5 33 Z "></path><path fill="rgb(165,184,244)" stroke="rgb(165,184,244)" stroke-width="1" opacity="0.44313725490196076" d="M 84.5 37 L 80 42.5 Q 79.3 44.8 81.5 44 L 85.5 49 L 79 43.5 L 84.5 37 Z "></path><path fill="rgb(165,184,244)" stroke="rgb(165,184,244)" stroke-width="1" opacity="0.44313725490196076" d="M 158.5 43 L 159 44.5 L 156.5 48 L 157 46.5 L 158.5 43 Z "></path><path fill="rgb(165,184,244)" stroke="rgb(165,184,244)" stroke-width="1" opacity="0.44313725490196076" d="M 155.5 49 L 152.5 53 L 155.5 49 Z "></path><path fill="rgb(165,184,244)" stroke="rgb(165,184,244)" stroke-width="1" opacity="0.44313725490196076" d="M 86.5 50 L 88 52.5 L 87 52.5 L 86.5 50 Z "></path><path fill="rgb(165,184,244)" stroke="rgb(165,184,244)" stroke-width="1" opacity="0.44313725490196076" d="M 53.5 51 L 65 51.5 L 53 52 L 52.5 64 L 52 52.5 L 53.5 51 Z "></path><path fill="rgb(165,184,244)" stroke="rgb(165,184,244)" stroke-width="1" opacity="0.44313725490196076" d="M 150.5 53 L 149.5 55 L 150.5 53 Z "></path><path fill="rgb(165,184,244)" stroke="rgb(165,184,244)" stroke-width="1" opacity="0.44313725490196076" d="M 68.5 54 Q 71.3 55.3 70 60.5 L 65.5 64 L 65.5 63 L 69 60.5 L 68.5 54 Z "></path><path fill="rgb(165,184,244)" stroke="rgb(165,184,244)" stroke-width="1" opacity="0.44313725490196076" d="M 88.5 54 L 89 56.5 L 88 56.5 L 88.5 54 Z "></path><path fill="rgb(165,184,244)" stroke="rgb(165,184,244)" stroke-width="1" opacity="0.44313725490196076" d="M 123 58 Q 129.1 56.2 131 59.5 L 129.5 59 Q 124.1 58.4 124 59.5 L 124 79.5 L 123 79.5 L 123 58 Z "></path><path fill="rgb(165,184,244)" stroke="rgb(165,184,244)" stroke-width="1" opacity="0.44313725490196076" d="M 152.5 60 L 156 65.5 L 154 64.5 L 152.5 60 Z "></path><path fill="rgb(165,184,244)" stroke="rgb(165,184,244)" stroke-width="1" opacity="0.44313725490196076" d="M 131.5 61 L 137 70.5 L 135 69.5 L 131.5 61 Z "></path><path fill="rgb(165,184,244)" stroke="rgb(165,184,244)" stroke-width="1" opacity="0.44313725490196076" d="M 88.5 63 L 89 65.5 L 88 65.5 L 88.5 63 Z "></path><path fill="rgb(165,184,244)" stroke="rgb(165,184,244)" stroke-width="1" opacity="0.44313725490196076" d="M 87.5 67 L 88 68.5 L 86 69.5 L 87.5 67 Z "></path><path fill="rgb(165,184,244)" stroke="rgb(165,184,244)" stroke-width="1" opacity="0.44313725490196076" d="M 85.5 71 L 81.5 76 L 85.5 71 Z "></path><path fill="rgb(165,184,244)" stroke="rgb(165,184,244)" stroke-width="1" opacity="0.44313725490196076" d="M 158.5 71 L 163 78.5 L 161 77.5 L 158.5 71 Z "></path><path fill="rgb(165,184,244)" stroke="rgb(165,184,244)" stroke-width="1" opacity="0.44313725490196076" d="M 79.5 76 L 78.5 78 L 77 77.5 L 79.5 76 Z "></path><path fill="rgb(165,184,244)" stroke="rgb(165,184,244)" stroke-width="1" opacity="0.44313725490196076" d="M 70.5 79 L 73 79.5 L 70.5 80 L 70.5 79 Z "></path><path fill="rgb(0,0,0)" stroke="rgb(0,0,0)" stroke-width="1" opacity="0" d="M 0 0 L 256 0 L 256 90 L 0 90 L 0 0 Z M 34 10 L 34 80 L 73 80 L 82 76 Q 87 72 89 66 Q 91 54 86 49 L 80 44 L 87 34 Q 89 23 85 19 Q 81 12 73 10 L 34 10 Z M 104 10 L 104 80 L 124 80 L 124 60 Q 124 58 130 59 L 140 79 L 142 80 L 163 80 L 150 55 L 153 53 L 158 47 L 161 37 Q 161 27 157 21 Q 152 13 142 10 L 104 10 Z M 172 10 L 172 28 L 191 28 L 191 29 L 191 80 L 211 80 L 211 28 L 230 28 L 230 11 L 230 10 L 172 10 Z "></path><path fill="rgb(0,0,0)" stroke="rgb(0,0,0)" stroke-width="1" opacity="0" d="M 53 25 Q 63.7 23.1 68 28.5 Q 69.3 34.8 65.5 36 L 63.5 37 L 53 37 L 53 25 Z "></path><path fill="rgb(0,0,0)" stroke="rgb(0,0,0)" stroke-width="1" opacity="0" d="M 124 28 L 135.5 28 L 139 30.5 L 140 36.5 L 136.5 41 L 134.5 42 L 124 42 L 124 28 Z "></path><path fill="rgb(0,0,0)" stroke="rgb(0,0,0)" stroke-width="1" opacity="0" d="M 53 52 L 65.5 52 L 68 53 Q 69.6 55.1 69 60.5 L 64.5 64 L 53 64 L 53 52 Z "></path><path fill="rgb(166,185,245)" stroke="rgb(166,185,245)" stroke-width="1" opacity="1" d="M 34 10 L 69.5 10 Q 80.3 11.7 85 19.5 Q 87.9 23.1 87 30.5 L 85 36.5 L 79 43.5 L 86 49.5 L 89 57.5 L 89 62.5 Q 87.3 71.8 80.5 76 L 69.5 80 L 34 80 L 34 10 Z M 52 25 L 52 37 L 66 37 L 69 34 L 68 28 L 66 25 L 52 25 Z M 54 51 L 52 53 L 52 64 L 67 64 Q 71 63 70 56 Q 66 49 54 51 Z "></path><path fill="rgb(166,185,245)" stroke="rgb(166,185,245)" stroke-width="1" opacity="1" d="M 104 10 L 138.5 10 Q 150.5 12 156 20.5 L 160 29.5 L 160 39.5 Q 157.9 48.4 151.5 53 L 149 54.5 L 163 79.5 L 141 80 L 133 62.5 L 129.5 58 Q 123.3 57.3 123 58.5 L 123 80 L 104 80 L 104 10 Z M 123 27 L 123 42 L 136 42 L 138 41 L 141 37 L 139 30 L 136 27 L 123 27 Z "></path><path fill="rgb(166,185,245)" stroke="rgb(166,185,245)" stroke-width="1" opacity="1" d="M 172 10 L 228.5 10 L 229 10.5 L 229 27 L 210 27 L 210 80 L 191 80 L 191 27.5 L 190.5 27 L 172 27 L 172 10 Z "></path></svg>